#!OML:ASF F:\VICON\USERDATA\INSTALL\rory3\rory3.ASF
:FULLY-SPECIFIED
:DEGREES
63
root 0.8043766773749061 17.857037635151237 28.815637744062105 -3.8461567591990846 -0.9912884785323988 2.302473374805617
lfemur 0.3300659481086399 -3.4202736862755367 -27.4099087216771
ltibia 23.813200956873295
lfoot -18.591538580319064 2.6140996754676893
ltoes 1.768456735279016
rfemur -31.441955153681768 -2.4494805157266577 20.139367636385717
rtibia 63.16426565045518
rfoot -8.078336767550395 -10.67212737016332
rtoes 2.738295935190544
lowerback 10.971894811309651 -0.252755116120416 -2.915205981412968
upperback 0.61795244047043 -0.6307608605332854 0.8375012311344271
thorax -5.367278329633933 -0.2274081453138812 2.7867144842036944
lowerneck -15.940871463063173 -2.502054997746859 -2.4853515913251667
upperneck 19.72925591938968 -3.0903499932693457 1.2353311769386144
head 8.847446500902539 -1.504605956845932 0.4254400973749189
lclavicle -6.33423590686357e-16 -5.564322352255265e-16
lhumerus -26.867913125954715 -1.125450353067157 80.76272811124144
lradius 23.91161847086604
lwrist 5.767558775391917
lhand -29.442505382965216 21.93322816191472
lfingers 7.125020000000058
lthumb -2.7786834911149407 51.90927666579921
rclavicle -6.33423590686357e-16 -5.564322352255265e-16
rhumerus -31.588652942344023 -21.02361009959048 -77.70632779740032
rradius 26.357481515650818
rwrist 3.8326854370029837
rhand -17.088479781456588 30.381552565084892
rfingers 7.125020000000058
rthumb 9.15038792249409 -6.785170787950849
64
root 0.7933518055253501 17.81644445893815 29.4459692986647 -3.0745010157769355 -0.4059799749336152 2.7674193610104525
lfemur 3.879501153602991 -2.9689035384958014 -27.984005426471008
ltibia 19.371320131628877
lfoot -19.56912663287589 2.3214790689971743
ltoes 0.9285239039696114
rfemur -32.571143476055965 -0.5447136723289461 18.80251887058344
rtibia 47.44363505288862
rfoot -8.130609213061055 -13.752206812335231
rtoes 0.5207339499685331
lowerback 10.57988656089497 -0.5913288711714658 -3.706948739997883
upperback 0.5669225797359836 -1.1642151269607877 0.8730009060036618
thorax -5.198985483829847 -0.47203423151007773 3.3092338315532253
lowerneck -16.083847814842727 -2.5453501324699497 -2.6114657076472847
upperneck 19.275286030139284 -3.1476860964976012 1.3641631825516323
head 8.722967161242444 -1.5221066214710555 0.48625589585827655
lclavicle -8.771835327707704e-16 -7.451762651317377e-16
lhumerus -24.716400980859973 -3.0733729557170646 80.3604854441801
lradius 24.94194146051308
lwrist 6.401179282920621
lhand -29.47871447369892 22.3857351270709
lfingers 7.125020000000057
lthumb -2.8136976855469924 52.35903349276812
rclavicle -8.771835327707704e-16 -7.451762651317377e-16
rhumerus -32.66879942535141 -21.171249581014738 -77.58501297568499
rradius 25.67978989937653
rwrist 3.5762619948374894
rhand -17.0698455442251 30.39013049902965
rfingers 7.125020000000057
rthumb 9.168351324836939 -6.661677918793854
65
root 0.7884679184492986 17.77144617122872 30.34255295278731 -2.1953841902274567 0.2431505913913855 3.275695568244346
lfemur 8.099715902683037 -2.5486943070185313 -28.27258429926956
ltibia 14.91372639106675
lfoot -19.99359250960875 1.7920267398417016
ltoes -0.8158845914481878
rfemur -32.41471365491276 2.152928191409822 17.26716634416386
rtibia 32.023523545253845
rfoot -7.8200908810181495 -16.669658356471487
rtoes -1.3457628511667048
lowerback 10.125443607311578 -0.8712406066659607 -4.399193573659848
upperback 0.4935924472617467 -1.6064236705342072 0.9087311918388444
thorax -4.973930585419749 -0.6758119371520318 3.8254754124939976
lowerneck -16.230055257415177 -2.5622441043088764 -2.6667226269761355
upperneck 19.020412263493842 -3.1765998152491477 1.4979640911881646
head 8.668227112958853 -1.5249625772765119 0.536735710931417
lclavicle -7.546528484153629e-16 -6.503004021897895e-16
lhumerus -22.501758133226733 -4.35576672697413 79.96528629285864
lradius 26.56042584006309
lwrist 7.200644497995878
lhand -29.498835833812958 22.9209047264226
lfingers 7.125020000000057
lthumb -2.8331862203182654 52.88947358217379
rclavicle -7.546528484153629e-16 -6.503004021897895e-16
rhumerus -33.542154663284 -21.660769988044336 -77.01642798541855
rradius 25.22549885904484
rwrist 4.129053263065527
rhand -17.029544377588802 30.503576934770006
rfingers 7.125020000000057
rthumb 9.207231334642369 -6.3735801845197475
66
root 0.7502835731759298 17.699822659829216 30.42366441369512 -1.5495964735998866 0.7067460346539052 3.5481835479444297
lfemur 11.601090635650884 -2.6275561975356645 -28.611629587415045
ltibia 10.083071776373437
lfoot -20.586260206679302 0.6822030290336469
ltoes -4.09894935799268
rfemur -32.4130297801188 4.506840245101188 15.739762853249172
rtibia 19.11604126119592
rfoot -8.213167108145988 -18.324218264431888
rtoes -3.8268814498389023
lowerback 9.64337673511308 -1.1595352331193158 -5.066717615475464
upperback 0.382786942311593 -2.055101888257427 0.9243809430136555
thorax -4.867073316677017 -0.8815991623393623 4.17055735131239
lowerneck -16.46905151715551 -2.6166322030862306 -2.7157478791282537
upperneck 18.742184622481272 -3.2597678915177566 1.5211196764426207
head 8.621367317201742 -1.5531886594520377 0.5457495422853521
lclavicle -1.371652568687406e-15 -1.1280450666878767e-15
lhumerus -21.23752886931381 -5.294423131122523 79.33832149548526
lradius 26.612531778954043
lwrist 7.3682311615120994
lhand -29.74626538618764 22.571238969394912
lfingers 7.125020000000056
lthumb -3.0721575924399973 52.535108194873466
rclavicle -1.371652568687406e-15 -1.1280450666878767e-15
rhumerus -34.89786075734993 -23.29107635965607 -76.52152464915895
rradius 22.937730483422115
rwrist 4.877916255111992
rhand -17.115128137950332 30.29110235154574
rfingers 7.125020000000056
rthumb 9.12462822524458 -6.4670081321518245
67
root 0.7347587142765095 17.640108314158848 31.41491174452105 -1.0556881232947437 1.2731132101775655 3.726421764525736
lfemur 15.265731114838669 -3.097792846071825 -28.44279503502277
ltibia 8.73634237638639
lfoot -19.956051365315226 -0.35433413478566234
ltoes -7.965134706961637
rfemur -31.62068859257834 5.845303150661147 15.386783899506993
rtibia 13.455417998159355
rfoot -7.6850151822948725 -17.553378779464715
rtoes -5.318310095890517
lowerback 9.48170041176266 -1.327205322031364 -5.284412005212391
upperback 0.33244038462267295 -2.296349348741633 1.0574462793271235
thorax -4.753142095866995 -0.9957059911609979 4.527450316669211
lowerneck -16.635541824854982 -2.620773331641712 -2.717838005202297
upperneck 18.80128974609688 -3.256999547561728 1.5697477331926049
head 8.679372458109937 -1.5508769347488167 0.5584949310141263
lclavicle -1.0080462584754133e-15 -8.465036489718922e-16
lhumerus -19.9245782759215 -5.262519698085486 79.21438601492191
lradius 28.361915511768714
lwrist 8.044160298268986
lhand -30.038163640525987 22.09308863644946
lfingers 7.125020000000057
lthumb -3.3540450306520393 52.052857276864955
rclavicle -1.0080462584754133e-15 -8.465036489718922e-16
rhumerus -35.753838786649816 -24.60442674069429 -75.18001990112548
rradius 22.412129822717596
rwrist 6.58770702311408
rhand -17.18859345364094 30.36803214487621
rfingers 7.125020000000057
rthumb 9.05373585491794 -6.295828521179751
68
root 0.689919634087762 17.57679761438664 31.776337716057046 -1.0393654049901153 1.4875563033796073 3.3901435061762313
lfemur 17.231552283782445 -4.126387948014003 -28.187956130639268
ltibia 9.131010734338318
lfoot -18.696955283692077 -2.029184865314665
ltoes -13.04282905678447
rfemur -31.869981728366035 5.8079950360938914 15.865366482790872
rtibia 12.802733717730902
rfoot -6.91992853926836 -15.059763524958377
rtoes -5.764432319841713
lowerback 9.379982013779841 -1.502536548615768 -5.271868566583224
upperback 0.292075085122205 -2.5199130885580265 1.2589688465516826
thorax -4.780156484045303 -1.1028061084444611 4.660451878463234
lowerneck -16.82743570806091 -2.6186090957993957 -2.726349018904517
upperneck 18.816569950103897 -3.2284885460582218 1.4071026182876591
head 8.719641520128292 -1.5477438453214978 0.5080944212492324
lclavicle -1.4924113753707771e-15 -1.2215489570830193e-15
lhumerus -19.744254887695327 -5.03612708208896 79.04059981714815
lradius 28.100969053179455
lwrist 7.927878093869447
lhand -30.69518908333352 20.79704190023846
lfingers 7.125020000000055
lthumb -3.9885131836231302 50.75236601133039
rclavicle -1.4924113753707771e-15 -1.2215489570830193e-15
rhumerus -37.19441738885849 -27.039549793144833 -73.79442270330638
rradius 19.96342772481028
rwrist 8.390710438232972
rhand -17.36463079832127 30.08891917640469
rfingers 7.125020000000055
rthumb 8.883866769211384 -6.638579836442591
69
root 0.6778112041548111 17.561695815434888 33.35080942585465 -1.1803751231699091 1.717141894573735 2.7656070939165303
lfemur 18.8141737140885 -5.054189978237151 -27.096061254207545
ltibia 14.05664565901446
lfoot -14.676229653489214 -4.143768470523748
ltoes -17.540305104169214
rfemur -31.263706708955 5.271019965552037 17.622440258719976
rtibia 17.444032191921444
rfoot -4.674104102602569 -11.463459312030412
rtoes -3.4078690304768164
lowerback 9.504122563754967 -1.5857388422937264 -4.6489419672997565
upperback 0.30801777657155555 -2.54859813280959 1.6383077523884249
thorax -4.756408455219374 -1.128252960512028 4.786618925339132
lowerneck -16.82397801439476 -2.493986199451367 -2.684301905426179
upperneck 19.19204120501214 -3.0021240787258865 1.203209133573134
head 8.8431110607287 -1.470358120538263 0.4511674102589823
lclavicle -9.192176867680526e-16 -7.777234264865219e-16
lhumerus -19.492733862556307 -3.9633879370458835 79.43291877898072
lradius 29.60531967936959
lwrist 8.36881248795137
lhand -31.173471479649756 20.255832127999913
lfingers 7.125020000000057
lthumb -4.450376751371604 50.20622637536505
rclavicle -9.192176867680526e-16 -7.777234264865219e-16
rhumerus -38.17343160794045 -28.98987294161928 -71.43511754942254
rradius 19.460252455962816
rwrist 11.134666965582749
rhand -17.419548242487995 30.223677583428568
rfingers 7.125020000000057
rthumb 8.830879619791954 -6.606576848502427
